<?xml version="1.0" encoding="UTF-8" standalone="no"?>
<!DOCTYPE svg PUBLIC "-//W3C//DTD SVG 1.1//EN"
 "http://www.w3.org/Graphics/SVG/1.1/DTD/svg11.dtd">
<!-- Generated by graphviz version 2.36.0 (20140111.2315)
 -->
<!-- Title: controllers_diagram Pages: 1 -->
<svg width="665pt" height="599pt"
 viewBox="0.00 0.00 665.38 599.16" xmlns="http://www.w3.org/2000/svg" xmlns:xlink="http://www.w3.org/1999/xlink">
<g id="graph0" class="graph" transform="scale(1 1) rotate(0) translate(4 595.157)">
<title>controllers_diagram</title>
<polygon fill="white" stroke="none" points="-4,4 -4,-595.157 661.375,-595.157 661.375,4 -4,4"/>
<!-- _diagram_info -->
<g id="node1" class="node"><title>_diagram_info</title>
<text text-anchor="start" x="458" y="-328.6" font-family="Times,serif" font-size="13.00">Controllers diagram</text>
<text text-anchor="start" x="458" y="-315.6" font-family="Times,serif" font-size="13.00">Date: Apr 07 2014 &#45; 09:54</text>
<text text-anchor="start" x="458" y="-302.6" font-family="Times,serif" font-size="13.00">Migration version: 20140403152816</text>
<text text-anchor="start" x="458" y="-289.6" font-family="Times,serif" font-size="13.00">Generated by RailRoady 1.1.1</text>
<text text-anchor="start" x="458" y="-276.6" font-family="Times,serif" font-size="13.00">http://railroady.prestonlee.com</text>
</g>
<!-- ApplicationController -->
<g id="node2" class="node"><title>ApplicationController</title>
<path fill="none" stroke="black" d="M187.66,-241.057C187.66,-241.057 361.591,-241.057 361.591,-241.057 367.591,-241.057 373.591,-247.057 373.591,-253.057 373.591,-253.057 373.591,-331.057 373.591,-331.057 373.591,-337.057 367.591,-343.057 361.591,-343.057 361.591,-343.057 187.66,-343.057 187.66,-343.057 181.66,-343.057 175.66,-337.057 175.66,-331.057 175.66,-331.057 175.66,-253.057 175.66,-253.057 175.66,-247.057 181.66,-241.057 187.66,-241.057"/>
<text text-anchor="middle" x="274.626" y="-327.857" font-family="Times,serif" font-size="14.00">ApplicationController</text>
<polyline fill="none" stroke="black" points="175.66,-321.057 373.591,-321.057 "/>
<text text-anchor="start" x="183.66" y="-305.857" font-family="Times,serif" font-size="14.00">after_sign_in_path_for</text>
<polyline fill="none" stroke="black" points="175.66,-299.057 373.591,-299.057 "/>
<text text-anchor="start" x="183.66" y="-283.857" font-family="Times,serif" font-size="14.00">configure_permitted_parameters</text>
<polyline fill="none" stroke="black" points="175.66,-277.057 373.591,-277.057 "/>
<text text-anchor="start" x="183.66" y="-261.857" font-family="Times,serif" font-size="14.00">_layout</text>
<text text-anchor="start" x="183.66" y="-247.857" font-family="Times,serif" font-size="14.00">require_signin</text>
</g>
<!-- BooksController -->
<g id="node3" class="node"><title>BooksController</title>
<path fill="none" stroke="black" d="M380.496,-35.8641C380.496,-35.8641 465.827,-35.8641 465.827,-35.8641 471.827,-35.8641 477.827,-41.8641 477.827,-47.8641 477.827,-47.8641 477.827,-183.864 477.827,-183.864 477.827,-189.864 471.827,-195.864 465.827,-195.864 465.827,-195.864 380.496,-195.864 380.496,-195.864 374.496,-195.864 368.496,-189.864 368.496,-183.864 368.496,-183.864 368.496,-47.8641 368.496,-47.8641 368.496,-41.8641 374.496,-35.8641 380.496,-35.8641"/>
<text text-anchor="middle" x="423.161" y="-180.664" font-family="Times,serif" font-size="14.00">BooksController</text>
<polyline fill="none" stroke="black" points="368.496,-173.864 477.827,-173.864 "/>
<text text-anchor="start" x="376.496" y="-158.664" font-family="Times,serif" font-size="14.00">create</text>
<text text-anchor="start" x="376.496" y="-144.664" font-family="Times,serif" font-size="14.00">index</text>
<text text-anchor="start" x="376.496" y="-130.664" font-family="Times,serif" font-size="14.00">new</text>
<text text-anchor="start" x="376.496" y="-116.664" font-family="Times,serif" font-size="14.00">show</text>
<polyline fill="none" stroke="black" points="368.496,-109.864 477.827,-109.864 "/>
<polyline fill="none" stroke="black" points="368.496,-85.8641 477.827,-85.8641 "/>
<text text-anchor="start" x="376.496" y="-70.6641" font-family="Times,serif" font-size="14.00">_layout</text>
<text text-anchor="start" x="376.496" y="-56.6641" font-family="Times,serif" font-size="14.00">book_params</text>
<text text-anchor="start" x="376.496" y="-42.6641" font-family="Times,serif" font-size="14.00">set_book</text>
</g>
<!-- ApplicationController&#45;&gt;BooksController -->
<g id="edge1" class="edge"><title>ApplicationController&#45;&gt;BooksController</title>
<path fill="none" stroke="black" d="M317.988,-240.621C333.743,-221.932 351.758,-200.563 368.373,-180.854"/>
</g>
<!-- BorrowsController -->
<g id="node4" class="node"><title>BorrowsController</title>
<path fill="none" stroke="black" d="M69.3995,-0.5C69.3995,-0.5 168.69,-0.5 168.69,-0.5 174.69,-0.5 180.69,-6.5 180.69,-12.5 180.69,-12.5 180.69,-218.5 180.69,-218.5 180.69,-224.5 174.69,-230.5 168.69,-230.5 168.69,-230.5 69.3995,-230.5 69.3995,-230.5 63.3995,-230.5 57.3995,-224.5 57.3995,-218.5 57.3995,-218.5 57.3995,-12.5 57.3995,-12.5 57.3995,-6.5 63.3995,-0.5 69.3995,-0.5"/>
<text text-anchor="middle" x="119.045" y="-215.3" font-family="Times,serif" font-size="14.00">BorrowsController</text>
<polyline fill="none" stroke="black" points="57.3995,-208.5 180.69,-208.5 "/>
<text text-anchor="start" x="65.3995" y="-193.3" font-family="Times,serif" font-size="14.00">create</text>
<text text-anchor="start" x="65.3995" y="-179.3" font-family="Times,serif" font-size="14.00">destroy</text>
<text text-anchor="start" x="65.3995" y="-165.3" font-family="Times,serif" font-size="14.00">index</text>
<text text-anchor="start" x="65.3995" y="-151.3" font-family="Times,serif" font-size="14.00">new</text>
<text text-anchor="start" x="65.3995" y="-137.3" font-family="Times,serif" font-size="14.00">remind</text>
<text text-anchor="start" x="65.3995" y="-123.3" font-family="Times,serif" font-size="14.00">show</text>
<text text-anchor="start" x="65.3995" y="-109.3" font-family="Times,serif" font-size="14.00">update</text>
<polyline fill="none" stroke="black" points="57.3995,-102.5 180.69,-102.5 "/>
<polyline fill="none" stroke="black" points="57.3995,-78.5 180.69,-78.5 "/>
<text text-anchor="start" x="65.3995" y="-63.3" font-family="Times,serif" font-size="14.00">_layout</text>
<text text-anchor="start" x="65.3995" y="-49.3" font-family="Times,serif" font-size="14.00">borrow_params</text>
<text text-anchor="start" x="65.3995" y="-35.3" font-family="Times,serif" font-size="14.00">ensure_borrowable</text>
<text text-anchor="start" x="65.3995" y="-21.3" font-family="Times,serif" font-size="14.00">set_borrow</text>
<text text-anchor="start" x="65.3995" y="-7.3" font-family="Times,serif" font-size="14.00">set_user</text>
</g>
<!-- ApplicationController&#45;&gt;BorrowsController -->
<g id="edge2" class="edge"><title>ApplicationController&#45;&gt;BorrowsController</title>
<path fill="none" stroke="black" d="M229.625,-240.99C214.369,-223.676 197.052,-204.025 180.726,-185.498"/>
</g>
<!-- UserBooksController -->
<g id="node5" class="node"><title>UserBooksController</title>
<path fill="none" stroke="black" d="M12,-355.975C12,-355.975 140.842,-355.975 140.842,-355.975 146.842,-355.975 152.842,-361.975 152.842,-367.975 152.842,-367.975 152.842,-517.975 152.842,-517.975 152.842,-523.975 146.842,-529.975 140.842,-529.975 140.842,-529.975 12,-529.975 12,-529.975 6,-529.975 -2.84217e-14,-523.975 -2.84217e-14,-517.975 -2.84217e-14,-517.975 -2.84217e-14,-367.975 -2.84217e-14,-367.975 -2.84217e-14,-361.975 6,-355.975 12,-355.975"/>
<text text-anchor="middle" x="76.4209" y="-514.775" font-family="Times,serif" font-size="14.00">UserBooksController</text>
<polyline fill="none" stroke="black" points="-2.84217e-14,-507.975 152.842,-507.975 "/>
<text text-anchor="start" x="8" y="-492.775" font-family="Times,serif" font-size="14.00">create</text>
<text text-anchor="start" x="8" y="-478.775" font-family="Times,serif" font-size="14.00">destroy</text>
<text text-anchor="start" x="8" y="-464.775" font-family="Times,serif" font-size="14.00">index</text>
<text text-anchor="start" x="8" y="-450.775" font-family="Times,serif" font-size="14.00">show</text>
<polyline fill="none" stroke="black" points="-2.84217e-14,-443.975 152.842,-443.975 "/>
<polyline fill="none" stroke="black" points="-2.84217e-14,-419.975 152.842,-419.975 "/>
<text text-anchor="start" x="8" y="-404.775" font-family="Times,serif" font-size="14.00">_layout</text>
<text text-anchor="start" x="8" y="-390.775" font-family="Times,serif" font-size="14.00">authenticate_on_destroy</text>
<text text-anchor="start" x="8" y="-376.775" font-family="Times,serif" font-size="14.00">set_user_book</text>
<text text-anchor="start" x="8" y="-362.775" font-family="Times,serif" font-size="14.00">user_book_params</text>
</g>
<!-- ApplicationController&#45;&gt;UserBooksController -->
<g id="edge3" class="edge"><title>ApplicationController&#45;&gt;UserBooksController</title>
<path fill="none" stroke="black" d="M207.523,-343.151C190.003,-356.491 170.988,-370.969 153.017,-384.653"/>
</g>
<!-- UsersController -->
<g id="node6" class="node"><title>UsersController</title>
<path fill="none" stroke="black" d="M420.812,-377.819C420.812,-377.819 502.24,-377.819 502.24,-377.819 508.24,-377.819 514.24,-383.819 514.24,-389.819 514.24,-389.819 514.24,-511.819 514.24,-511.819 514.24,-517.819 508.24,-523.819 502.24,-523.819 502.24,-523.819 420.812,-523.819 420.812,-523.819 414.812,-523.819 408.812,-517.819 408.812,-511.819 408.812,-511.819 408.812,-389.819 408.812,-389.819 408.812,-383.819 414.812,-377.819 420.812,-377.819"/>
<text text-anchor="middle" x="461.526" y="-508.619" font-family="Times,serif" font-size="14.00">UsersController</text>
<polyline fill="none" stroke="black" points="408.812,-501.819 514.24,-501.819 "/>
<text text-anchor="start" x="416.812" y="-486.619" font-family="Times,serif" font-size="14.00">index</text>
<text text-anchor="start" x="416.812" y="-472.619" font-family="Times,serif" font-size="14.00">remove_book</text>
<text text-anchor="start" x="416.812" y="-458.619" font-family="Times,serif" font-size="14.00">show</text>
<polyline fill="none" stroke="black" points="408.812,-451.819 514.24,-451.819 "/>
<polyline fill="none" stroke="black" points="408.812,-427.819 514.24,-427.819 "/>
<text text-anchor="start" x="416.812" y="-412.619" font-family="Times,serif" font-size="14.00">_layout</text>
<text text-anchor="start" x="416.812" y="-398.619" font-family="Times,serif" font-size="14.00">confirm_public</text>
<text text-anchor="start" x="416.812" y="-384.619" font-family="Times,serif" font-size="14.00">set_user</text>
</g>
<!-- ApplicationController&#45;&gt;UsersController -->
<g id="edge4" class="edge"><title>ApplicationController&#45;&gt;UsersController</title>
<path fill="none" stroke="black" d="M334.791,-343.164C358.588,-363.378 385.697,-386.406 408.719,-405.962"/>
</g>
<!-- WelcomeController -->
<g id="node7" class="node"><title>WelcomeController</title>
<path fill="none" stroke="black" d="M212.253,-472.657C212.253,-472.657 314.318,-472.657 314.318,-472.657 320.318,-472.657 326.318,-478.657 326.318,-484.657 326.318,-484.657 326.318,-578.657 326.318,-578.657 326.318,-584.657 320.318,-590.657 314.318,-590.657 314.318,-590.657 212.253,-590.657 212.253,-590.657 206.253,-590.657 200.253,-584.657 200.253,-578.657 200.253,-578.657 200.253,-484.657 200.253,-484.657 200.253,-478.657 206.253,-472.657 212.253,-472.657"/>
<text text-anchor="middle" x="263.286" y="-575.457" font-family="Times,serif" font-size="14.00">WelcomeController</text>
<polyline fill="none" stroke="black" points="200.253,-568.657 326.318,-568.657 "/>
<text text-anchor="start" x="208.253" y="-553.457" font-family="Times,serif" font-size="14.00">index</text>
<text text-anchor="start" x="208.253" y="-539.457" font-family="Times,serif" font-size="14.00">query</text>
<polyline fill="none" stroke="black" points="200.253,-532.657 326.318,-532.657 "/>
<polyline fill="none" stroke="black" points="200.253,-508.657 326.318,-508.657 "/>
<text text-anchor="start" x="208.253" y="-493.457" font-family="Times,serif" font-size="14.00">_layout</text>
<text text-anchor="start" x="208.253" y="-479.457" font-family="Times,serif" font-size="14.00">confirm_signed_in</text>
</g>
<!-- ApplicationController&#45;&gt;WelcomeController -->
<g id="edge5" class="edge"><title>ApplicationController&#45;&gt;WelcomeController</title>
<path fill="none" stroke="black" d="M272.207,-343.164C270.411,-381.096 267.959,-432.907 266.08,-472.611"/>
</g>
</g>
</svg>
