<?xml version="1.0" encoding="UTF-8" standalone="no"?>
<!DOCTYPE svg PUBLIC "-//W3C//DTD SVG 1.1//EN"
 "http://www.w3.org/Graphics/SVG/1.1/DTD/svg11.dtd">
<!-- Generated by graphviz version 2.36.0 (20140111.2315)
 -->
<!-- Title: models_diagram Pages: 1 -->
<svg width="395pt" height="370pt"
 viewBox="0.00 0.00 395.00 370.00" xmlns="http://www.w3.org/2000/svg" xmlns:xlink="http://www.w3.org/1999/xlink">
<g id="graph0" class="graph" transform="scale(1 1) rotate(0) translate(4 366)">
<title>models_diagram</title>
<polygon fill="white" stroke="none" points="-4,4 -4,-366 391,-366 391,4 -4,4"/>
<!-- _diagram_info -->
<g id="node1" class="node"><title>_diagram_info</title>
<text text-anchor="start" x="7.31226" y="-347.1" font-family="Times,serif" font-size="13.00">Models diagram</text>
<text text-anchor="start" x="7.31226" y="-334.1" font-family="Times,serif" font-size="13.00">Date: Apr 07 2014 &#45; 09:54</text>
<text text-anchor="start" x="7.31226" y="-321.1" font-family="Times,serif" font-size="13.00">Migration version: 20140403152816</text>
<text text-anchor="start" x="7.31226" y="-308.1" font-family="Times,serif" font-size="13.00">Generated by RailRoady 1.1.1</text>
<text text-anchor="start" x="7.31226" y="-295.1" font-family="Times,serif" font-size="13.00">http://railroady.prestonlee.com</text>
</g>
<!-- Book -->
<g id="node2" class="node"><title>Book</title>
<ellipse fill="none" stroke="black" cx="277" cy="-234" rx="28.9086" ry="18"/>
<text text-anchor="middle" x="277" y="-229.8" font-family="Times,serif" font-size="14.00">Book</text>
</g>
<!-- User -->
<g id="node4" class="node"><title>User</title>
<ellipse fill="none" stroke="black" cx="228" cy="-162" rx="27" ry="18"/>
<text text-anchor="middle" x="228" y="-157.8" font-family="Times,serif" font-size="14.00">User</text>
</g>
<!-- Book&#45;&gt;User -->
<g id="edge2" class="edge"><title>Book&#45;&gt;User</title>
<path fill="none" stroke="#d0fd64" d="M260.07,-208.814C255.184,-201.834 249.851,-194.216 244.963,-187.233"/>
<polygon fill="#d0fd64" stroke="#d0fd64" points="260.146,-208.924 262.195,-219.697 263.014,-213.02 265.881,-217.116 265.881,-217.116 265.881,-217.116 263.014,-213.02 269.568,-214.535 260.146,-208.924 260.146,-208.924"/>
<polygon fill="#d0fd64" stroke="#d0fd64" points="244.81,-187.014 242.761,-176.241 241.942,-182.917 239.075,-178.821 239.075,-178.821 239.075,-178.821 241.942,-182.917 235.388,-181.402 244.81,-187.014 244.81,-187.014"/>
</g>
<!-- UserBook -->
<g id="node5" class="node"><title>UserBook</title>
<ellipse fill="none" stroke="black" cx="298" cy="-90" rx="45.4533" ry="18"/>
<text text-anchor="middle" x="298" y="-85.8" font-family="Times,serif" font-size="14.00">UserBook</text>
</g>
<!-- Book&#45;&gt;UserBook -->
<g id="edge1" class="edge"><title>Book&#45;&gt;UserBook</title>
<path fill="none" stroke="#4136bd" d="M280.708,-207.929C284.435,-182.725 290.163,-143.994 293.993,-118.095"/>
<ellipse fill="none" stroke="#4136bd" cx="280.118" cy="-211.915" rx="4.00001" ry="4.00001"/>
<polygon fill="#4136bd" stroke="#4136bd" points="293.995,-118.082 299.91,-108.848 294.726,-113.135 295.458,-108.189 295.458,-108.189 295.458,-108.189 294.726,-113.135 291.006,-107.531 293.995,-118.082 293.995,-118.082"/>
</g>
<!-- Borrow -->
<g id="node3" class="node"><title>Borrow</title>
<ellipse fill="none" stroke="black" cx="298" cy="-18" rx="37.188" ry="18"/>
<text text-anchor="middle" x="298" y="-13.8" font-family="Times,serif" font-size="14.00">Borrow</text>
</g>
<!-- User&#45;&gt;Borrow -->
<g id="edge6" class="edge"><title>User&#45;&gt;Borrow</title>
<path fill="none" stroke="#ccd15a" d="M228.194,-133.866C229.343,-115.469 232.916,-91.1157 243,-72 249.493,-59.6915 259.906,-48.5677 269.933,-39.7258"/>
<polygon fill="#ccd15a" stroke="#ccd15a" points="228.191,-133.935 223.27,-143.735 227.978,-138.93 227.766,-143.926 227.766,-143.926 227.766,-143.926 227.978,-138.93 232.262,-144.117 228.191,-133.935 228.191,-133.935"/>
<polygon fill="#ccd15a" stroke="#ccd15a" points="270.136,-39.5566 280.695,-36.5984 273.973,-36.3508 277.81,-33.145 277.81,-33.145 277.81,-33.145 273.973,-36.3508 274.924,-29.6916 270.136,-39.5566 270.136,-39.5566"/>
</g>
<!-- User&#45;&gt;UserBook -->
<g id="edge5" class="edge"><title>User&#45;&gt;UserBook</title>
<path fill="none" stroke="#c78a43" d="M248.212,-140.788C256.533,-132.467 266.221,-122.779 274.827,-114.173"/>
<ellipse fill="none" stroke="#c78a43" cx="245.332" cy="-143.668" rx="4.00002" ry="4.00002"/>
<polygon fill="#c78a43" stroke="#c78a43" points="274.979,-114.021 285.232,-110.132 278.515,-110.485 282.05,-106.95 282.05,-106.95 282.05,-106.95 278.515,-110.485 278.868,-103.768 274.979,-114.021 274.979,-114.021"/>
</g>
<!-- UserBook&#45;&gt;Borrow -->
<g id="edge8" class="edge"><title>UserBook&#45;&gt;Borrow</title>
<path fill="none" stroke="#b8b805" d="M298,-63.6398C298,-58.0629 298,-52.1319 298,-46.4761"/>
<ellipse fill="none" stroke="#b8b805" cx="298" cy="-67.6966" rx="4" ry="4"/>
<polygon fill="#b8b805" stroke="#b8b805" points="298,-46.1043 302.5,-36.1043 298,-41.1043 298,-36.1043 298,-36.1043 298,-36.1043 298,-41.1043 293.5,-36.1044 298,-46.1043 298,-46.1043"/>
</g>
<!-- ActiveRecord::Base -->
<g id="node6" class="node"><title>ActiveRecord::Base</title>
<ellipse fill="none" stroke="black" cx="306" cy="-325" rx="80.9821" ry="18"/>
<text text-anchor="middle" x="306" y="-320.8" font-family="Times,serif" font-size="14.00">ActiveRecord::Base</text>
</g>
<!-- ActiveRecord::Base&#45;&gt;Book -->
<g id="edge3" class="edge"><title>ActiveRecord::Base&#45;&gt;Book</title>
<path fill="none" stroke="black" d="M300.409,-306.84C295.24,-290.979 287.607,-267.553 282.476,-251.806"/>
</g>
<!-- ActiveRecord::Base&#45;&gt;Borrow -->
<g id="edge4" class="edge"><title>ActiveRecord::Base&#45;&gt;Borrow</title>
<path fill="none" stroke="black" d="M315.429,-307.081C337.298,-265.467 387.024,-155.451 352,-72 345.29,-56.0115 331.142,-42.4201 319.012,-33.0046"/>
</g>
<!-- ActiveRecord::Base&#45;&gt;User -->
<g id="edge7" class="edge"><title>ActiveRecord::Base&#45;&gt;User</title>
<path fill="none" stroke="black" d="M284.714,-307.512C269.289,-294.281 249.388,-274.285 239,-252 228.212,-228.858 226.732,-198.841 227.061,-180.255"/>
</g>
<!-- ActiveRecord::Base&#45;&gt;UserBook -->
<g id="edge9" class="edge"><title>ActiveRecord::Base&#45;&gt;UserBook</title>
<path fill="none" stroke="black" d="M308.747,-306.89C310.938,-292.337 313.826,-270.859 315,-252 318.266,-199.542 307.69,-137.815 301.751,-108.351"/>
</g>
</g>
</svg>
