<?xml version="1.0" encoding="UTF-8" standalone="no"?>
<!DOCTYPE svg PUBLIC "-//W3C//DTD SVG 1.1//EN"
 "http://www.w3.org/Graphics/SVG/1.1/DTD/svg11.dtd">
<!-- Generated by graphviz version 2.36.0 (20140111.2315)
 -->
<!-- Title: models_diagram Pages: 1 -->
<svg width="403pt" height="928pt"
 viewBox="0.00 0.00 402.58 928.00" xmlns="http://www.w3.org/2000/svg" xmlns:xlink="http://www.w3.org/1999/xlink">
<g id="graph0" class="graph" transform="scale(1 1) rotate(0) translate(4 924)">
<title>models_diagram</title>
<polygon fill="white" stroke="none" points="-4,4 -4,-924 398.582,-924 398.582,4 -4,4"/>
<!-- _diagram_info -->
<g id="node1" class="node"><title>_diagram_info</title>
<text text-anchor="start" x="7.31226" y="-905.1" font-family="Times,serif" font-size="13.00">Models diagram</text>
<text text-anchor="start" x="7.31226" y="-892.1" font-family="Times,serif" font-size="13.00">Date: Apr 07 2014 &#45; 09:54</text>
<text text-anchor="start" x="7.31226" y="-879.1" font-family="Times,serif" font-size="13.00">Migration version: 20140403152816</text>
<text text-anchor="start" x="7.31226" y="-866.1" font-family="Times,serif" font-size="13.00">Generated by RailRoady 1.1.1</text>
<text text-anchor="start" x="7.31226" y="-853.1" font-family="Times,serif" font-size="13.00">http://railroady.prestonlee.com</text>
</g>
<!-- Book -->
<g id="node2" class="node"><title>Book</title>
<path fill="none" stroke="black" d="M194.284,-611C194.284,-611 315.716,-611 315.716,-611 321.716,-611 327.716,-617 327.716,-623 327.716,-623 327.716,-797 327.716,-797 327.716,-803 321.716,-809 315.716,-809 315.716,-809 194.284,-809 194.284,-809 188.284,-809 182.284,-803 182.284,-797 182.284,-797 182.284,-623 182.284,-623 182.284,-617 188.284,-611 194.284,-611"/>
<text text-anchor="middle" x="255" y="-793.8" font-family="Times,serif" font-size="14.00">Book</text>
<polyline fill="none" stroke="black" points="182.284,-787 327.716,-787 "/>
<text text-anchor="start" x="190.284" y="-771.8" font-family="Times,serif" font-size="14.00">id :integer</text>
<text text-anchor="start" x="190.284" y="-757.8" font-family="Times,serif" font-size="14.00">title :string</text>
<text text-anchor="start" x="190.284" y="-743.8" font-family="Times,serif" font-size="14.00">description :text</text>
<text text-anchor="start" x="190.284" y="-729.8" font-family="Times,serif" font-size="14.00">isbn :string</text>
<text text-anchor="start" x="190.284" y="-715.8" font-family="Times,serif" font-size="14.00">author :string</text>
<text text-anchor="start" x="190.284" y="-701.8" font-family="Times,serif" font-size="14.00">cover_url :string</text>
<text text-anchor="start" x="190.284" y="-687.8" font-family="Times,serif" font-size="14.00">categories :string</text>
<text text-anchor="start" x="190.284" y="-673.8" font-family="Times,serif" font-size="14.00">ratings_count :integer</text>
<text text-anchor="start" x="190.284" y="-659.8" font-family="Times,serif" font-size="14.00">average_rating :integer</text>
<text text-anchor="start" x="190.284" y="-645.8" font-family="Times,serif" font-size="14.00">page_count :integer</text>
<text text-anchor="start" x="190.284" y="-631.8" font-family="Times,serif" font-size="14.00">created_at :datetime</text>
<text text-anchor="start" x="190.284" y="-617.8" font-family="Times,serif" font-size="14.00">updated_at :datetime</text>
</g>
<!-- User -->
<g id="node4" class="node"><title>User</title>
<path fill="none" stroke="black" d="M88.7222,-333C88.7222,-333 269.278,-333 269.278,-333 275.278,-333 281.278,-339 281.278,-345 281.278,-345 281.278,-561 281.278,-561 281.278,-567 275.278,-573 269.278,-573 269.278,-573 88.7222,-573 88.7222,-573 82.7222,-573 76.7222,-567 76.7222,-561 76.7222,-561 76.7222,-345 76.7222,-345 76.7222,-339 82.7222,-333 88.7222,-333"/>
<text text-anchor="middle" x="179" y="-557.8" font-family="Times,serif" font-size="14.00">User</text>
<polyline fill="none" stroke="black" points="76.7222,-551 281.278,-551 "/>
<text text-anchor="start" x="84.7222" y="-535.8" font-family="Times,serif" font-size="14.00">id :integer</text>
<text text-anchor="start" x="84.7222" y="-521.8" font-family="Times,serif" font-size="14.00">email :string</text>
<text text-anchor="start" x="84.7222" y="-507.8" font-family="Times,serif" font-size="14.00">encrypted_password :string</text>
<text text-anchor="start" x="84.7222" y="-493.8" font-family="Times,serif" font-size="14.00">reset_password_token :string</text>
<text text-anchor="start" x="84.7222" y="-479.8" font-family="Times,serif" font-size="14.00">reset_password_sent_at :datetime</text>
<text text-anchor="start" x="84.7222" y="-465.8" font-family="Times,serif" font-size="14.00">remember_created_at :datetime</text>
<text text-anchor="start" x="84.7222" y="-451.8" font-family="Times,serif" font-size="14.00">sign_in_count :integer</text>
<text text-anchor="start" x="84.7222" y="-437.8" font-family="Times,serif" font-size="14.00">current_sign_in_at :datetime</text>
<text text-anchor="start" x="84.7222" y="-423.8" font-family="Times,serif" font-size="14.00">last_sign_in_at :datetime</text>
<text text-anchor="start" x="84.7222" y="-409.8" font-family="Times,serif" font-size="14.00">current_sign_in_ip :string</text>
<text text-anchor="start" x="84.7222" y="-395.8" font-family="Times,serif" font-size="14.00">last_sign_in_ip :string</text>
<text text-anchor="start" x="84.7222" y="-381.8" font-family="Times,serif" font-size="14.00">created_at :datetime</text>
<text text-anchor="start" x="84.7222" y="-367.8" font-family="Times,serif" font-size="14.00">updated_at :datetime</text>
<text text-anchor="start" x="84.7222" y="-353.8" font-family="Times,serif" font-size="14.00">name :string</text>
<text text-anchor="start" x="84.7222" y="-339.8" font-family="Times,serif" font-size="14.00">public :boolean</text>
</g>
<!-- Book&#45;&gt;User -->
<g id="edge2" class="edge"><title>Book&#45;&gt;User</title>
<path fill="none" stroke="#ab289c" d="M222.859,-601.157C221.042,-595.062 219.207,-588.906 217.372,-582.747"/>
<polygon fill="#ab289c" stroke="#ab289c" points="222.869,-601.192 221.413,-612.06 224.297,-605.983 225.725,-610.775 225.725,-610.775 225.725,-610.775 224.297,-605.983 230.038,-609.49 222.869,-601.192 222.869,-601.192"/>
<polygon fill="#ab289c" stroke="#ab289c" points="217.344,-582.655 218.801,-571.786 215.916,-577.863 214.488,-573.072 214.488,-573.072 214.488,-573.072 215.916,-577.863 210.176,-574.357 217.344,-582.655 217.344,-582.655"/>
</g>
<!-- UserBook -->
<g id="node5" class="node"><title>UserBook</title>
<path fill="none" stroke="black" d="M244.495,-195C244.495,-195 353.505,-195 353.505,-195 359.505,-195 365.505,-201 365.505,-207 365.505,-207 365.505,-283 365.505,-283 365.505,-289 359.505,-295 353.505,-295 353.505,-295 244.495,-295 244.495,-295 238.495,-295 232.495,-289 232.495,-283 232.495,-283 232.495,-207 232.495,-207 232.495,-201 238.495,-195 244.495,-195"/>
<text text-anchor="middle" x="299" y="-279.8" font-family="Times,serif" font-size="14.00">UserBook</text>
<polyline fill="none" stroke="black" points="232.495,-273 365.505,-273 "/>
<text text-anchor="start" x="240.495" y="-257.8" font-family="Times,serif" font-size="14.00">id :integer</text>
<text text-anchor="start" x="240.495" y="-243.8" font-family="Times,serif" font-size="14.00">user_id :integer</text>
<text text-anchor="start" x="240.495" y="-229.8" font-family="Times,serif" font-size="14.00">book_id :integer</text>
<text text-anchor="start" x="240.495" y="-215.8" font-family="Times,serif" font-size="14.00">created_at :datetime</text>
<text text-anchor="start" x="240.495" y="-201.8" font-family="Times,serif" font-size="14.00">updated_at :datetime</text>
</g>
<!-- Book&#45;&gt;UserBook -->
<g id="edge1" class="edge"><title>Book&#45;&gt;UserBook</title>
<path fill="none" stroke="#db455f" d="M284.95,-602.645C286.939,-593.015 288.675,-583.365 290,-574 303.181,-480.841 303.1,-371.36 301.383,-305.395"/>
<ellipse fill="none" stroke="#db455f" cx="284.058" cy="-606.812" rx="4.00001" ry="4.00001"/>
<polygon fill="#db455f" stroke="#db455f" points="301.377,-305.187 305.594,-295.064 301.236,-300.189 301.095,-295.191 301.095,-295.191 301.095,-295.191 301.236,-300.189 296.597,-295.318 301.377,-305.187 301.377,-305.187"/>
</g>
<!-- Borrow -->
<g id="node3" class="node"><title>Borrow</title>
<path fill="none" stroke="black" d="M231.267,-1C231.267,-1 366.733,-1 366.733,-1 372.733,-1 378.733,-7 378.733,-13 378.733,-13 378.733,-145 378.733,-145 378.733,-151 372.733,-157 366.733,-157 366.733,-157 231.267,-157 231.267,-157 225.267,-157 219.267,-151 219.267,-145 219.267,-145 219.267,-13 219.267,-13 219.267,-7 225.267,-1 231.267,-1"/>
<text text-anchor="middle" x="299" y="-141.8" font-family="Times,serif" font-size="14.00">Borrow</text>
<polyline fill="none" stroke="black" points="219.267,-135 378.733,-135 "/>
<text text-anchor="start" x="227.267" y="-119.8" font-family="Times,serif" font-size="14.00">id :integer</text>
<text text-anchor="start" x="227.267" y="-105.8" font-family="Times,serif" font-size="14.00">user_book_id :integer</text>
<text text-anchor="start" x="227.267" y="-91.8" font-family="Times,serif" font-size="14.00">borrow_date :date</text>
<text text-anchor="start" x="227.267" y="-77.8" font-family="Times,serif" font-size="14.00">duration_in_days :integer</text>
<text text-anchor="start" x="227.267" y="-63.8" font-family="Times,serif" font-size="14.00">created_at :datetime</text>
<text text-anchor="start" x="227.267" y="-49.8" font-family="Times,serif" font-size="14.00">updated_at :datetime</text>
<text text-anchor="start" x="227.267" y="-35.8" font-family="Times,serif" font-size="14.00">returned :boolean</text>
<text text-anchor="start" x="227.267" y="-21.8" font-family="Times,serif" font-size="14.00">borrower_email :string</text>
<text text-anchor="start" x="227.267" y="-7.8" font-family="Times,serif" font-size="14.00">borrower_name :string</text>
</g>
<!-- User&#45;&gt;Borrow -->
<g id="edge6" class="edge"><title>User&#45;&gt;Borrow</title>
<path fill="none" stroke="#0c2242" d="M190.227,-322.894C196.704,-280.773 206.913,-234.457 223,-194 226.763,-184.536 231.393,-175.049 236.496,-165.811"/>
<polygon fill="#0c2242" stroke="#0c2242" points="190.205,-323.046 184.289,-332.279 189.473,-327.992 188.74,-332.938 188.74,-332.938 188.74,-332.938 189.473,-327.992 193.192,-333.597 190.205,-323.046 190.205,-323.046"/>
<polygon fill="#0c2242" stroke="#0c2242" points="236.549,-165.717 245.424,-159.276 239.034,-161.378 241.519,-157.04 241.519,-157.04 241.519,-157.04 239.034,-161.378 237.614,-154.803 236.549,-165.717 236.549,-165.717"/>
</g>
<!-- User&#45;&gt;UserBook -->
<g id="edge5" class="edge"><title>User&#45;&gt;UserBook</title>
<path fill="none" stroke="#7d506c" d="M252.569,-325.707C256.94,-318.204 261.209,-310.874 265.278,-303.89"/>
<ellipse fill="none" stroke="#7d506c" cx="250.47" cy="-329.309" rx="4.00002" ry="4.00002"/>
<polygon fill="#7d506c" stroke="#7d506c" points="265.283,-303.881 274.205,-297.505 267.8,-299.56 270.317,-295.24 270.317,-295.24 270.317,-295.24 267.8,-299.56 266.428,-292.975 265.283,-303.881 265.283,-303.881"/>
</g>
<!-- UserBook&#45;&gt;Borrow -->
<g id="edge8" class="edge"><title>UserBook&#45;&gt;Borrow</title>
<path fill="none" stroke="#f02dcb" d="M299,-186.56C299,-180.305 299,-173.841 299,-167.331"/>
<ellipse fill="none" stroke="#f02dcb" cx="299" cy="-190.795" rx="4" ry="4"/>
<polygon fill="#f02dcb" stroke="#f02dcb" points="299,-167.089 303.5,-157.089 299,-162.089 299,-157.089 299,-157.089 299,-157.089 299,-162.089 294.5,-157.089 299,-167.089 299,-167.089"/>
</g>
<!-- ActiveRecord::Base -->
<g id="node6" class="node"><title>ActiveRecord::Base</title>
<ellipse fill="none" stroke="black" cx="306" cy="-883" rx="80.9821" ry="18"/>
<text text-anchor="middle" x="306" y="-878.8" font-family="Times,serif" font-size="14.00">ActiveRecord::Base</text>
</g>
<!-- ActiveRecord::Base&#45;&gt;Book -->
<g id="edge3" class="edge"><title>ActiveRecord::Base&#45;&gt;Book</title>
<path fill="none" stroke="black" d="M300.923,-864.979C296.842,-851.293 290.746,-830.853 284.318,-809.302"/>
</g>
<!-- ActiveRecord::Base&#45;&gt;Borrow -->
<g id="edge4" class="edge"><title>ActiveRecord::Base&#45;&gt;Borrow</title>
<path fill="none" stroke="black" d="M322.531,-865.347C334.849,-851.731 350.741,-831.31 358,-810 431.694,-593.652 370.444,-524.527 374,-296 374.705,-250.672 387.005,-237.428 374,-194 370.228,-181.404 364.567,-168.912 358.012,-157.07"/>
</g>
<!-- ActiveRecord::Base&#45;&gt;User -->
<g id="edge7" class="edge"><title>ActiveRecord::Base&#45;&gt;User</title>
<path fill="none" stroke="black" d="M268.785,-866.974C233.325,-851.807 183.785,-828.102 173,-810 131,-739.504 134.172,-646.392 146.962,-573.076"/>
</g>
<!-- ActiveRecord::Base&#45;&gt;UserBook -->
<g id="edge9" class="edge"><title>ActiveRecord::Base&#45;&gt;UserBook</title>
<path fill="none" stroke="black" d="M315.414,-864.862C322.657,-850.646 332.07,-829.652 336,-810 377.725,-601.373 333.406,-543.467 310,-332 308.675,-320.031 307.104,-307.145 305.57,-295.083"/>
</g>
</g>
</svg>
